<svg xmlns="http://www.w3.org/2000/svg" xmlns:xlink="http://www.w3.org/1999/xlink">
  <symbol id="checkmark" viewBox="0 0 512 512">
    <title>checkmark</title>
    <path d="M256,48C141.31,48,48,141.31,48,256s93.31,208,208,208,208-93.31,208-208S370.69,48,256,48ZM364.25,186.29l-134.4,160a16,16,0,0,1-12,5.71h-.27a16,16,0,0,1-11.89-5.3l-57.6-64a16,16,0,1,1,23.78-21.4l45.29,50.32L339.75,165.71a16,16,0,0,1,24.5,20.58Z"/>
  </symbol>
  <symbol id="info" viewBox="0 0 512 512">
    <title>info</title>
    <path d="M256,56C145.72,56,56,145.72,56,256s89.72,200,200,200,200-89.72,200-200S366.28,56,256,56Zm0,82a26,26,0,1,1-26,26A26,26,0,0,1,256,138Zm48,226H216a16,16,0,0,1,0-32h28V244H228a16,16,0,0,1,0-32h32a16,16,0,0,1,16,16V332h28a16,16,0,0,1,0,32Z"/>
  </symbol>
  <symbol id="github" viewBox="0 0 512 512">
    <title>github</title>
    <path d="M256,32C132.3,32,32,134.9,32,261.7c0,101.5,64.2,187.5,153.2,217.9a17.56,17.56,0,0,0,3.8.4c8.3,0,11.5-6.1,11.5-11.4,0-5.5-.2-19.9-.3-39.1a102.4,102.4,0,0,1-22.6,2.7c-43.1,0-52.9-33.5-52.9-33.5-10.2-26.5-24.9-33.6-24.9-33.6-19.5-13.7-.1-14.1,1.4-14.1h.1c22.5,2,34.3,23.8,34.3,23.8,11.2,19.6,26.2,25.1,39.6,25.1a63,63,0,0,0,25.6-6c2-14.8,7.8-24.9,14.2-30.7-49.7-5.8-102-25.5-102-113.5,0-25.1,8.7-45.6,23-61.6-2.3-5.8-10-29.2,2.2-60.8a18.64,18.64,0,0,1,5-.5c8.1,0,26.4,3.1,56.6,24.1a208.21,208.21,0,0,1,112.2,0c30.2-21,48.5-24.1,56.6-24.1a18.64,18.64,0,0,1,5,.5c12.2,31.6,4.5,55,2.2,60.8,14.3,16.1,23,36.6,23,61.6,0,88.2-52.4,107.6-102.3,113.3,8,7.1,15.2,21.1,15.2,42.5,0,30.7-.3,55.5-.3,63,0,5.4,3.1,11.5,11.4,11.5a19.35,19.35,0,0,0,4-.4C415.9,449.2,480,363.1,480,261.7,480,134.9,379.7,32,256,32Z"/>
  </symbol>
  <symbol id="warning" viewBox="0 0 512 512">
    <title>warning</title>
    <path d="M449.07,399.08,278.64,82.58c-12.08-22.44-44.26-22.44-56.35,0L51.87,399.08A32,32,0,0,0,80,446.25H420.89A32,32,0,0,0,449.07,399.08Zm-198.6-1.83a20,20,0,1,1,20-20A20,20,0,0,1,250.47,397.25ZM272.19,196.1l-5.74,122a16,16,0,0,1-32,0l-5.74-121.95v0a21.73,21.73,0,0,1,21.5-22.69h.21a21.74,21.74,0,0,1,21.73,22.7Z" />
  </symbol>
</svg>
